{
    "asset" : {
        "generator" : "Khronos glTF Blender I/O v1.8.19",
        "version" : "2.0"
    },
    "scene" : 0,
    "scenes" : [
        {
            "name" : "Scene",
            "nodes" : [
                0,
                1,
                2,
                3,
                4,
                5,
                6,
                7,
                8,
                9,
                10
            ]
        }
    ],
    "nodes" : [
        {
            "mesh" : 0,
            "name" : "Suzanne",
            "rotation" : [
                -0.28014907240867615,
                -0.1505056470632553,
                0.10157043486833572,
                0.9426282048225403
            ],
            "translation" : [
                0.158433735370636,
                -0.7576821446418762,
                0.5801270604133606
            ]
        },
        {
            "mesh" : 1,
            "name" : "Grid",
            "scale" : [
                2.630206346511841,
                2.630206346511841,
                3.347391128540039
            ]
        },
        {
            "mesh" : 2,
            "name" : "Cone",
            "scale" : [
                0.469887375831604,
                0.469887375831604,
                0.469887375831604
            ],
            "translation" : [
                -1.9395267963409424,
                -0.8003840446472168,
                0.5010547637939453
            ]
        },
        {
            "mesh" : 3,
            "name" : "Sphere",
            "scale" : [
                0.45425549149513245,
                0.45425549149513245,
                0.45425549149513245
            ],
            "translation" : [
                1.276658296585083,
                -1.1507413387298584,
                0.4674749970436096
            ]
        },
        {
            "mesh" : 4,
            "name" : "Cylinder",
            "scale" : [
                0.5099223256111145,
                0.5099223256111145,
                0.5099223256111145
            ],
            "translation" : [
                0.2546880841255188,
                1.242621660232544,
                0.5268644690513611
            ]
        },
        {
            "mesh" : 5,
            "name" : "Icosphere",
            "scale" : [
                0.45150303840637207,
                0.45150303840637207,
                0.45150303840637207
            ],
            "translation" : [
                -0.5755500197410583,
                -1.8564302921295166,
                0.48974883556365967
            ]
        },
        {
            "mesh" : 3,
            "name" : "Sphere.001",
            "scale" : [
                0.45425549149513245,
                0.45425549149513245,
                0.45425549149513245
            ],
            "translation" : [
                1.7234504222869873,
                1.3488575220108032,
                0.4674749970436096
            ]
        },
        {
            "mesh" : 3,
            "name" : "Sphere.002",
            "scale" : [
                0.45425549149513245,
                0.45425549149513245,
                0.45425549149513245
            ],
            "translation" : [
                -0.9995208978652954,
                1.04679274559021,
                0.4674747586250305
            ]
        },
        {
            "mesh" : 2,
            "name" : "Cone.001",
            "scale" : [
                0.469887375831604,
                0.469887375831604,
                0.469887375831604
            ],
            "translation" : [
                1.2044107913970947,
                -1.9958617687225342,
                0.5172010660171509
            ]
        },
        {
            "mesh" : 5,
            "name" : "Icosphere.001",
            "scale" : [
                0.45150303840637207,
                0.45150303840637207,
                0.45150303840637207
            ],
            "translation" : [
                1.8555030822753906,
                -0.11488711833953857,
                0.48974889516830444
            ]
        },
        {
            "mesh" : 4,
            "name" : "Cylinder.001",
            "scale" : [
                0.5099223256111145,
                0.5099223256111145,
                0.5099223256111145
            ],
            "translation" : [
                -1.7947678565979004,
                0.2758138179779053,
                0.5268644690513611
            ]
        }
    ],
    "materials" : [
        {
            "doubleSided" : true,
            "name" : "Material.001",
            "pbrMetallicRoughness" : {
                "baseColorFactor" : [
                    0.28922462463378906,
                    0.4606592357158661,
                    0.8000000715255737,
                    0.6029412150382996
                ],
                "metallicFactor" : 0,
                "roughnessFactor" : 0.5
            }
        },
        {
            "doubleSided" : true,
            "name" : "Material.006",
            "pbrMetallicRoughness" : {
                "baseColorFactor" : [
                    0.972632884979248,
                    0.9137266874313354,
                    1,
                    1
                ],
                "metallicFactor" : 0,
                "roughnessFactor" : 0.5
            }
        },
        {
            "doubleSided" : true,
            "name" : "Material.003",
            "pbrMetallicRoughness" : {
                "baseColorFactor" : [
                    0.8000000715255737,
                    0.29940223693847656,
                    0.664714515209198,
                    1
                ],
                "metallicFactor" : 0,
                "roughnessFactor" : 0.5
            }
        },
        {
            "doubleSided" : true,
            "name" : "Material.002",
            "pbrMetallicRoughness" : {
                "baseColorFactor" : [
                    0.8000000715255737,
                    0.16877254843711853,
                    0.1482454240322113,
                    1
                ],
                "metallicFactor" : 0,
                "roughnessFactor" : 0.5
            }
        },
        {
            "doubleSided" : true,
            "name" : "Material.004",
            "pbrMetallicRoughness" : {
                "baseColorFactor" : [
                    0.8000000715255737,
                    0.7442489266395569,
                    0.18960615992546082,
                    1
                ],
                "metallicFactor" : 0,
                "roughnessFactor" : 0.5
            }
        },
        {
            "doubleSided" : true,
            "name" : "Material.005",
            "pbrMetallicRoughness" : {
                "baseColorFactor" : [
                    0.2515735328197479,
                    0.8000000715255737,
                    0.17345066368579865,
                    1
                ],
                "metallicFactor" : 0,
                "roughnessFactor" : 0.5
            }
        }
    ],
    "meshes" : [
        {
            "name" : "Suzanne",
            "primitives" : [
                {
                    "attributes" : {
                        "POSITION" : 0,
                        "NORMAL" : 1,
                        "TEXCOORD_0" : 2
                    },
                    "indices" : 3,
                    "material" : 0
                }
            ]
        },
        {
            "name" : "Grid",
            "primitives" : [
                {
                    "attributes" : {
                        "POSITION" : 4,
                        "NORMAL" : 5,
                        "TEXCOORD_0" : 6
                    },
                    "indices" : 7,
                    "material" : 1
                }
            ]
        },
        {
            "name" : "Cone",
            "primitives" : [
                {
                    "attributes" : {
                        "POSITION" : 8,
                        "NORMAL" : 9,
                        "TEXCOORD_0" : 10
                    },
                    "indices" : 11,
                    "material" : 2
                }
            ]
        },
        {
            "name" : "Sphere.001",
            "primitives" : [
                {
                    "attributes" : {
                        "POSITION" : 12,
                        "NORMAL" : 13,
                        "TEXCOORD_0" : 14
                    },
                    "indices" : 15,
                    "material" : 3
                }
            ]
        },
        {
            "name" : "Cylinder",
            "primitives" : [
                {
                    "attributes" : {
                        "POSITION" : 16,
                        "NORMAL" : 17,
                        "TEXCOORD_0" : 18
                    },
                    "indices" : 19,
                    "material" : 4
                }
            ]
        },
        {
            "name" : "Icosphere",
            "primitives" : [
                {
                    "attributes" : {
                        "POSITION" : 20,
                        "NORMAL" : 21,
                        "TEXCOORD_0" : 22
                    },
                    "indices" : 23,
                    "material" : 5
                }
            ]
        },
        {
            "name" : "Sphere.002",
            "primitives" : [
                {
                    "attributes" : {
                        "POSITION" : 24,
                        "NORMAL" : 25,
                        "TEXCOORD_0" : 26
                    },
                    "indices" : 15,
                    "material" : 3
                }
            ]
        },
        {
            "name" : "Sphere.003",
            "primitives" : [
                {
                    "attributes" : {
                        "POSITION" : 27,
                        "NORMAL" : 28,
                        "TEXCOORD_0" : 29
                    },
                    "indices" : 15,
                    "material" : 3
                }
            ]
        },
        {
            "name" : "Cone.001",
            "primitives" : [
                {
                    "attributes" : {
                        "POSITION" : 30,
                        "NORMAL" : 31,
                        "TEXCOORD_0" : 32
                    },
                    "indices" : 11,
                    "material" : 2
                }
            ]
        },
        {
            "name" : "Icosphere.001",
            "primitives" : [
                {
                    "attributes" : {
                        "POSITION" : 33,
                        "NORMAL" : 34,
                        "TEXCOORD_0" : 35
                    },
                    "indices" : 23,
                    "material" : 5
                }
            ]
        },
        {
            "name" : "Cylinder.001",
            "primitives" : [
                {
                    "attributes" : {
                        "POSITION" : 36,
                        "NORMAL" : 37,
                        "TEXCOORD_0" : 38
                    },
                    "indices" : 19,
                    "material" : 4
                }
            ]
        }
    ],
    "accessors" : [
        {
            "bufferView" : 0,
            "componentType" : 5126,
            "count" : 1966,
            "max" : [
                1.3671875,
                0.8515625,
                0.984375
            ],
            "min" : [
                -1.3671875,
                -0.8515625,
                -0.984375
            ],
            "type" : "VEC3"
        },
        {
            "bufferView" : 1,
            "componentType" : 5126,
            "count" : 1966,
            "type" : "VEC3"
        },
        {
            "bufferView" : 2,
            "componentType" : 5126,
            "count" : 1966,
            "type" : "VEC2"
        },
        {
            "bufferView" : 3,
            "componentType" : 5123,
            "count" : 2904,
            "type" : "SCALAR"
        },
        {
            "bufferView" : 4,
            "componentType" : 5126,
            "count" : 154,
            "max" : [
                1,
                1,
                0
            ],
            "min" : [
                -1,
                -1,
                0
            ],
            "type" : "VEC3"
        },
        {
            "bufferView" : 5,
            "componentType" : 5126,
            "count" : 154,
            "type" : "VEC3"
        },
        {
            "bufferView" : 6,
            "componentType" : 5126,
            "count" : 154,
            "type" : "VEC2"
        },
        {
            "bufferView" : 7,
            "componentType" : 5123,
            "count" : 600,
            "type" : "SCALAR"
        },
        {
            "bufferView" : 8,
            "componentType" : 5126,
            "count" : 128,
            "max" : [
                1,
                1,
                1
            ],
            "min" : [
                -1,
                -1,
                -1
            ],
            "type" : "VEC3"
        },
        {
            "bufferView" : 9,
            "componentType" : 5126,
            "count" : 128,
            "type" : "VEC3"
        },
        {
            "bufferView" : 10,
            "componentType" : 5126,
            "count" : 128,
            "type" : "VEC2"
        },
        {
            "bufferView" : 11,
            "componentType" : 5123,
            "count" : 186,
            "type" : "SCALAR"
        },
        {
            "bufferView" : 12,
            "componentType" : 5126,
            "count" : 1984,
            "max" : [
                0.9999997019767761,
                0.9999987483024597,
                1
            ],
            "min" : [
                -0.9999990463256836,
                -0.9999994039535522,
                -1
            ],
            "type" : "VEC3"
        },
        {
            "bufferView" : 13,
            "componentType" : 5126,
            "count" : 1984,
            "type" : "VEC3"
        },
        {
            "bufferView" : 14,
            "componentType" : 5126,
            "count" : 1984,
            "type" : "VEC2"
        },
        {
            "bufferView" : 15,
            "componentType" : 5123,
            "count" : 2880,
            "type" : "SCALAR"
        },
        {
            "bufferView" : 16,
            "componentType" : 5126,
            "count" : 192,
            "max" : [
                1,
                1,
                1
            ],
            "min" : [
                -1,
                -1,
                -1
            ],
            "type" : "VEC3"
        },
        {
            "bufferView" : 17,
            "componentType" : 5126,
            "count" : 192,
            "type" : "VEC3"
        },
        {
            "bufferView" : 18,
            "componentType" : 5126,
            "count" : 192,
            "type" : "VEC2"
        },
        {
            "bufferView" : 19,
            "componentType" : 5123,
            "count" : 372,
            "type" : "SCALAR"
        },
        {
            "bufferView" : 20,
            "componentType" : 5126,
            "count" : 240,
            "max" : [
                0.9510578513145447,
                0.9999999403953552,
                1
            ],
            "min" : [
                -0.9510578513145447,
                -0.9999999403953552,
                -1
            ],
            "type" : "VEC3"
        },
        {
            "bufferView" : 21,
            "componentType" : 5126,
            "count" : 240,
            "type" : "VEC3"
        },
        {
            "bufferView" : 22,
            "componentType" : 5126,
            "count" : 240,
            "type" : "VEC2"
        },
        {
            "bufferView" : 23,
            "componentType" : 5123,
            "count" : 240,
            "type" : "SCALAR"
        },
        {
            "bufferView" : 24,
            "componentType" : 5126,
            "count" : 1984,
            "max" : [
                0.9999997019767761,
                0.9999987483024597,
                1
            ],
            "min" : [
                -0.9999990463256836,
                -0.9999994039535522,
                -1
            ],
            "type" : "VEC3"
        },
        {
            "bufferView" : 25,
            "componentType" : 5126,
            "count" : 1984,
            "type" : "VEC3"
        },
        {
            "bufferView" : 26,
            "componentType" : 5126,
            "count" : 1984,
            "type" : "VEC2"
        },
        {
            "bufferView" : 27,
            "componentType" : 5126,
            "count" : 1984,
            "max" : [
                0.9999997019767761,
                0.9999987483024597,
                1
            ],
            "min" : [
                -0.9999990463256836,
                -0.9999994039535522,
                -1
            ],
            "type" : "VEC3"
        },
        {
            "bufferView" : 28,
            "componentType" : 5126,
            "count" : 1984,
            "type" : "VEC3"
        },
        {
            "bufferView" : 29,
            "componentType" : 5126,
            "count" : 1984,
            "type" : "VEC2"
        },
        {
            "bufferView" : 30,
            "componentType" : 5126,
            "count" : 128,
            "max" : [
                1,
                1,
                1
            ],
            "min" : [
                -1,
                -1,
                -1
            ],
            "type" : "VEC3"
        },
        {
            "bufferView" : 31,
            "componentType" : 5126,
            "count" : 128,
            "type" : "VEC3"
        },
        {
            "bufferView" : 32,
            "componentType" : 5126,
            "count" : 128,
            "type" : "VEC2"
        },
        {
            "bufferView" : 33,
            "componentType" : 5126,
            "count" : 240,
            "max" : [
                0.9510578513145447,
                0.9999999403953552,
                1
            ],
            "min" : [
                -0.9510578513145447,
                -0.9999999403953552,
                -1
            ],
            "type" : "VEC3"
        },
        {
            "bufferView" : 34,
            "componentType" : 5126,
            "count" : 240,
            "type" : "VEC3"
        },
        {
            "bufferView" : 35,
            "componentType" : 5126,
            "count" : 240,
            "type" : "VEC2"
        },
        {
            "bufferView" : 36,
            "componentType" : 5126,
            "count" : 192,
            "max" : [
                1,
                1,
                1
            ],
            "min" : [
                -1,
                -1,
                -1
            ],
            "type" : "VEC3"
        },
        {
            "bufferView" : 37,
            "componentType" : 5126,
            "count" : 192,
            "type" : "VEC3"
        },
        {
            "bufferView" : 38,
            "componentType" : 5126,
            "count" : 192,
            "type" : "VEC2"
        }
    ],
    "bufferViews" : [
        {
            "buffer" : 0,
            "byteLength" : 23592,
            "byteOffset" : 0
        },
        {
            "buffer" : 0,
            "byteLength" : 23592,
            "byteOffset" : 23592
        },
        {
            "buffer" : 0,
            "byteLength" : 15728,
            "byteOffset" : 47184
        },
        {
            "buffer" : 0,
            "byteLength" : 5808,
            "byteOffset" : 62912
        },
        {
            "buffer" : 0,
            "byteLength" : 1848,
            "byteOffset" : 68720
        },
        {
            "buffer" : 0,
            "byteLength" : 1848,
            "byteOffset" : 70568
        },
        {
            "buffer" : 0,
            "byteLength" : 1232,
            "byteOffset" : 72416
        },
        {
            "buffer" : 0,
            "byteLength" : 1200,
            "byteOffset" : 73648
        },
        {
            "buffer" : 0,
            "byteLength" : 1536,
            "byteOffset" : 74848
        },
        {
            "buffer" : 0,
            "byteLength" : 1536,
            "byteOffset" : 76384
        },
        {
            "buffer" : 0,
            "byteLength" : 1024,
            "byteOffset" : 77920
        },
        {
            "buffer" : 0,
            "byteLength" : 372,
            "byteOffset" : 78944
        },
        {
            "buffer" : 0,
            "byteLength" : 23808,
            "byteOffset" : 79316
        },
        {
            "buffer" : 0,
            "byteLength" : 23808,
            "byteOffset" : 103124
        },
        {
            "buffer" : 0,
            "byteLength" : 15872,
            "byteOffset" : 126932
        },
        {
            "buffer" : 0,
            "byteLength" : 5760,
            "byteOffset" : 142804
        },
        {
            "buffer" : 0,
            "byteLength" : 2304,
            "byteOffset" : 148564
        },
        {
            "buffer" : 0,
            "byteLength" : 2304,
            "byteOffset" : 150868
        },
        {
            "buffer" : 0,
            "byteLength" : 1536,
            "byteOffset" : 153172
        },
        {
            "buffer" : 0,
            "byteLength" : 744,
            "byteOffset" : 154708
        },
        {
            "buffer" : 0,
            "byteLength" : 2880,
            "byteOffset" : 155452
        },
        {
            "buffer" : 0,
            "byteLength" : 2880,
            "byteOffset" : 158332
        },
        {
            "buffer" : 0,
            "byteLength" : 1920,
            "byteOffset" : 161212
        },
        {
            "buffer" : 0,
            "byteLength" : 480,
            "byteOffset" : 163132
        },
        {
            "buffer" : 0,
            "byteLength" : 23808,
            "byteOffset" : 163612
        },
        {
            "buffer" : 0,
            "byteLength" : 23808,
            "byteOffset" : 187420
        },
        {
            "buffer" : 0,
            "byteLength" : 15872,
            "byteOffset" : 211228
        },
        {
            "buffer" : 0,
            "byteLength" : 23808,
            "byteOffset" : 227100
        },
        {
            "buffer" : 0,
            "byteLength" : 23808,
            "byteOffset" : 250908
        },
        {
            "buffer" : 0,
            "byteLength" : 15872,
            "byteOffset" : 274716
        },
        {
            "buffer" : 0,
            "byteLength" : 1536,
            "byteOffset" : 290588
        },
        {
            "buffer" : 0,
            "byteLength" : 1536,
            "byteOffset" : 292124
        },
        {
            "buffer" : 0,
            "byteLength" : 1024,
            "byteOffset" : 293660
        },
        {
            "buffer" : 0,
            "byteLength" : 2880,
            "byteOffset" : 294684
        },
        {
            "buffer" : 0,
            "byteLength" : 2880,
            "byteOffset" : 297564
        },
        {
            "buffer" : 0,
            "byteLength" : 1920,
            "byteOffset" : 300444
        },
        {
            "buffer" : 0,
            "byteLength" : 2304,
            "byteOffset" : 302364
        },
        {
            "buffer" : 0,
            "byteLength" : 2304,
            "byteOffset" : 304668
        },
        {
            "buffer" : 0,
            "byteLength" : 1536,
            "byteOffset" : 306972
        }
    ],
    "buffers" : [
        {
            "byteLength" : 308508,
            "uri" : "data:application/octet-stream;base64,"
        }
    ]
}
